<svg xmlns="http://www.w3.org/2000/svg" xmlns:xlink="http://www.w3.org/1999/xlink" width="500" zoomAndPan="magnify" viewBox="0 0 375 74.999997" height="100" preserveAspectRatio="xMidYMid meet" version="1.0"><defs><g/><clipPath id="6c0b3d455e"><path d="M 0 13.714844 L 62.25 13.714844 L 62.25 67.714844 L 0 67.714844 Z M 0 13.714844 " clip-rule="nonzero"/></clipPath><clipPath id="18f5a6642c"><path d="M 25 39 L 33 39 L 33 48 L 25 48 Z M 25 39 " clip-rule="nonzero"/></clipPath><clipPath id="b9d7625f03"><path d="M 24.90625 42.410156 L 39.21875 34.199219 L 44.445312 43.304688 L 30.132812 51.519531 Z M 24.90625 42.410156 " clip-rule="nonzero"/></clipPath><clipPath id="4e25081416"><path d="M 24.90625 42.410156 L 39.21875 34.199219 L 46.683594 47.207031 L 32.375 55.421875 Z M 24.90625 42.410156 " clip-rule="nonzero"/></clipPath><clipPath id="6d6e334777"><path d="M 25 43 L 30 43 L 30 48 L 25 48 Z M 25 43 " clip-rule="nonzero"/></clipPath><clipPath id="b79ac463df"><path d="M 24.90625 42.410156 L 39.21875 34.199219 L 44.445312 43.304688 L 30.132812 51.519531 Z M 24.90625 42.410156 " clip-rule="nonzero"/></clipPath><clipPath id="1c7f0ed658"><path d="M 24.90625 42.410156 L 39.21875 34.199219 L 46.683594 47.207031 L 32.375 55.421875 Z M 24.90625 42.410156 " clip-rule="nonzero"/></clipPath><clipPath id="11558f0b1a"><path d="M 34 35 L 42 35 L 42 42 L 34 42 Z M 34 35 " clip-rule="nonzero"/></clipPath><clipPath id="dbb8aa4471"><path d="M 24.90625 42.410156 L 39.21875 34.199219 L 44.445312 43.304688 L 30.132812 51.519531 Z M 24.90625 42.410156 " clip-rule="nonzero"/></clipPath><clipPath id="62147427db"><path d="M 24.90625 42.410156 L 39.21875 34.199219 L 46.683594 47.207031 L 32.375 55.421875 Z M 24.90625 42.410156 " clip-rule="nonzero"/></clipPath><clipPath id="50c5c33159"><path d="M 39 35 L 42 35 L 42 41 L 39 41 Z M 39 35 " clip-rule="nonzero"/></clipPath><clipPath id="c91a7b58fc"><path d="M 24.90625 42.410156 L 39.21875 34.199219 L 44.445312 43.304688 L 30.132812 51.519531 Z M 24.90625 42.410156 " clip-rule="nonzero"/></clipPath><clipPath id="ec54944eb0"><path d="M 24.90625 42.410156 L 39.21875 34.199219 L 46.683594 47.207031 L 32.375 55.421875 Z M 24.90625 42.410156 " clip-rule="nonzero"/></clipPath><clipPath id="295f034e73"><path d="M 28 36 L 45 36 L 45 52 L 28 52 Z M 28 36 " clip-rule="nonzero"/></clipPath><clipPath id="cb4d570c17"><path d="M 24.90625 42.410156 L 39.21875 34.199219 L 44.445312 43.304688 L 30.132812 51.519531 Z M 24.90625 42.410156 " clip-rule="nonzero"/></clipPath><clipPath id="b5cfd7e79e"><path d="M 24.90625 42.410156 L 39.21875 34.199219 L 46.683594 47.207031 L 32.375 55.421875 Z M 24.90625 42.410156 " clip-rule="nonzero"/></clipPath><clipPath id="691a701760"><path d="M 29 36 L 36 36 L 36 41 L 29 41 Z M 29 36 " clip-rule="nonzero"/></clipPath><clipPath id="1f4a2c299f"><path d="M 24.90625 42.410156 L 39.21875 34.199219 L 44.445312 43.304688 L 30.132812 51.519531 Z M 24.90625 42.410156 " clip-rule="nonzero"/></clipPath><clipPath id="e7e40f4390"><path d="M 24.90625 42.410156 L 39.21875 34.199219 L 46.683594 47.207031 L 32.375 55.421875 Z M 24.90625 42.410156 " clip-rule="nonzero"/></clipPath></defs><g fill="#ffffff" fill-opacity="1"><g transform="translate(73.549014, 51.24123)"><g><path d="M 27.488281 -24.25 C 25.691406 -28.800781 21.054688 -31.820312 16.894531 -32.082031 L 10.242188 -26.394531 C 10.109375 -28.976562 9.542969 -31.164062 6.785156 -32.082031 L -1.050781 -25.472656 L -0.304688 -24.117188 C 2.277344 -25.691406 3.238281 -24.816406 3.371094 -22.148438 L 3.414062 -5.078125 C 3.371094 -3.0625 2.757812 -2.1875 2.011719 -1.007812 L 3.0625 0 C 6.085938 -2.625 9.191406 0 12.429688 0 C 15.496094 0 18.644531 -2.1875 21.402344 -4.640625 C 28.054688 -10.8125 29.542969 -18.734375 27.488281 -24.25 Z M 20.222656 -6.566406 C 17.332031 -3.9375 14.574219 -7.484375 10.285156 -7.265625 L 10.242188 -23.503906 L 13.480469 -26.175781 C 19.828125 -26.175781 24.203125 -10.679688 20.222656 -6.566406 Z M 20.222656 -6.566406 "/></g></g></g><g fill="#ffffff" fill-opacity="1"><g transform="translate(102.961648, 51.24123)"><g><path d="M 15.1875 -14.179688 L 20.878906 -18.910156 C 20.878906 -18.910156 17.726562 -24.25 14.398438 -24.25 L 9.9375 -19.960938 C 9.5 -21.796875 8.492188 -22.980469 6.785156 -24.25 L -1.050781 -17.683594 L -0.304688 -16.28125 C 2.277344 -17.945312 3.28125 -17.070312 3.371094 -14.398438 L 3.371094 -7.570312 C 3.328125 -3.765625 4.816406 -1.226562 6.785156 0 L 14.007812 -5.820312 L 13 -7.179688 C 10.941406 -5.734375 10.242188 -7.132812 10.285156 -9.367188 L 10.242188 -16.457031 L 10.242188 -17.113281 L 10.503906 -17.375 C 12.34375 -19.082031 13.960938 -16.238281 15.1875 -14.179688 Z M 15.1875 -14.179688 "/></g></g></g><g fill="#ffffff" fill-opacity="1"><g transform="translate(122.263693, 51.24123)"><g><path d="M 22.324219 -7.132812 C 20.265625 -5.644531 19.519531 -7.179688 19.566406 -9.453125 L 19.519531 -16.28125 C 19.390625 -23.328125 13.917969 -24.25 8.796875 -24.25 L 0.523438 -18.296875 L 1.402344 -16.9375 C 4.683594 -18.953125 9.980469 -19.257812 11.90625 -16.195312 C 5.996094 -14.488281 1.664062 -11.863281 0.964844 -7.308594 C 0.523438 -4.203125 2.84375 -0.0429688 6.433594 0 L 12.914062 -4.726562 C 13.175781 -2.671875 14.621094 0 16.0625 0 L 23.285156 -5.910156 Z M 9.847656 -5.207031 C 6.652344 -7.003906 6.914062 -12.082031 12.5625 -14.136719 L 12.605469 -7.003906 Z M 9.847656 -5.207031 "/></g></g></g><g fill="#ffffff" fill-opacity="1"><g transform="translate(144.498247, 51.24123)"><g><path d="M 22.671875 -20.003906 L 22.191406 -21.492188 C 20.003906 -20.746094 18.164062 -21.839844 16.546875 -22.847656 C 15.1875 -23.765625 13.789062 -24.25 11.863281 -24.25 L 5.644531 -20.308594 C -1.792969 -15.496094 -0.613281 -3.238281 5.691406 0 L 12.867188 -4.683594 L 12.867188 -3.5 C 6.652344 0.742188 1.445312 5.863281 2.890625 9.542969 C 4.203125 12.519531 11.554688 9.542969 15.582031 4.421875 L 19.828125 -0.65625 L 19.785156 -17.859375 Z M 12.867188 -6.871094 L 10.984375 -5.601562 C 7.089844 -7.835938 5.425781 -14.96875 7.527344 -19.171875 C 10.066406 -18.777344 12.867188 -17.332031 12.867188 -14.355469 Z M 12.867188 4.421875 C 11.644531 5.644531 10.375 5.253906 9.71875 4.378906 C 9.058594 2.933594 10.722656 0.523438 12.867188 -1.445312 Z M 12.867188 4.421875 "/></g></g></g><g fill="#ffffff" fill-opacity="1"><g transform="translate(167.301791, 51.24123)"><g><path d="M 11.160156 -24.25 L 3.238281 -17.726562 C -2.976562 -12.035156 2.449219 0.0429688 9.058594 0 L 17.683594 -7.046875 C 24.730469 -13.875 20.003906 -24.25 11.160156 -24.25 Z M 13.351562 -5.996094 C 8.230469 -5.996094 5.121094 -15.976562 7.835938 -18.953125 C 13 -18.953125 15.058594 -9.324219 13.351562 -5.996094 Z M 13.351562 -5.996094 "/></g></g></g><g fill="#ffffff" fill-opacity="1"><g transform="translate(188.923581, 51.24123)"><g><path d="M 25.167969 -7.222656 C 23.109375 -5.734375 22.410156 -7.132812 22.453125 -9.367188 L 22.410156 -16.414062 C 22.453125 -20.617188 21.535156 -24.292969 18.953125 -24.25 C 15.84375 -24.25 13.085938 -20.441406 10.242188 -15.539062 L 10.242188 -16.414062 C 10.285156 -20.617188 9.410156 -22.324219 6.828125 -24.25 L -1.050781 -17.683594 L -0.21875 -16.195312 C 2.363281 -17.8125 3.28125 -16.984375 3.371094 -14.269531 L 3.371094 -7.570312 C 3.371094 -3.71875 4.859375 -1.183594 6.828125 0 L 14.007812 -5.863281 L 13 -7.222656 C 10.941406 -5.734375 10.242188 -7.132812 10.285156 -9.367188 L 10.285156 -10.503906 C 12.300781 -14.445312 13.042969 -16.0625 14.398438 -15.933594 C 15.886719 -15.757812 15.496094 -13.132812 15.539062 -12.125 L 15.539062 -7.570312 C 15.496094 -3.71875 17.027344 -1.183594 18.953125 0 L 26.175781 -5.863281 Z M 25.167969 -7.222656 "/></g></g></g><g fill="#ffffff" fill-opacity="1"><g transform="translate(214.572093, 51.24123)"><g/></g></g><g fill="#ffffff" fill-opacity="1"><g transform="translate(227.702731, 51.24123)"><g><path d="M 27.488281 -24.25 C 25.691406 -28.800781 21.054688 -31.820312 16.894531 -32.082031 L 10.242188 -26.394531 C 10.109375 -28.976562 9.542969 -31.164062 6.785156 -32.082031 L -1.050781 -25.472656 L -0.304688 -24.117188 C 2.277344 -25.691406 3.238281 -24.816406 3.371094 -22.148438 L 3.414062 -5.078125 C 3.371094 -3.0625 2.757812 -2.1875 2.011719 -1.007812 L 3.0625 0 C 6.085938 -2.625 9.191406 0 12.429688 0 C 15.496094 0 18.644531 -2.1875 21.402344 -4.640625 C 28.054688 -10.8125 29.542969 -18.734375 27.488281 -24.25 Z M 20.222656 -6.566406 C 17.332031 -3.9375 14.574219 -7.484375 10.285156 -7.265625 L 10.242188 -23.503906 L 13.480469 -26.175781 C 19.828125 -26.175781 24.203125 -10.679688 20.222656 -6.566406 Z M 20.222656 -6.566406 "/></g></g></g><g fill="#ffffff" fill-opacity="1"><g transform="translate(257.115365, 51.24123)"><g><path d="M 15.1875 -14.179688 L 20.878906 -18.910156 C 20.878906 -18.910156 17.726562 -24.25 14.398438 -24.25 L 9.9375 -19.960938 C 9.5 -21.796875 8.492188 -22.980469 6.785156 -24.25 L -1.050781 -17.683594 L -0.304688 -16.28125 C 2.277344 -17.945312 3.28125 -17.070312 3.371094 -14.398438 L 3.371094 -7.570312 C 3.328125 -3.765625 4.816406 -1.226562 6.785156 0 L 14.007812 -5.820312 L 13 -7.179688 C 10.941406 -5.734375 10.242188 -7.132812 10.285156 -9.367188 L 10.242188 -16.457031 L 10.242188 -17.113281 L 10.503906 -17.375 C 12.34375 -19.082031 13.960938 -16.238281 15.1875 -14.179688 Z M 15.1875 -14.179688 "/></g></g></g><g fill="#ffffff" fill-opacity="1"><g transform="translate(276.417399, 51.24123)"><g><path d="M 9.9375 -8.886719 L 19.171875 -16.546875 C 19.171875 -19.433594 14.925781 -24.25 11.597656 -24.25 C 8.140625 -24.25 2.757812 -18.253906 1.621094 -16.371094 C -1.445312 -10.855469 4.550781 -0.132812 9.5 0 L 18.777344 -7.089844 L 17.859375 -8.492188 C 14.445312 -6.257812 11.863281 -6.960938 9.9375 -8.886719 Z M 7.484375 -19.257812 C 9.191406 -20.398438 11.863281 -16.808594 12.605469 -14.136719 L 8.886719 -10.984375 C 7.003906 -13.960938 5.691406 -17.945312 7.484375 -19.257812 Z M 7.484375 -19.257812 "/></g></g></g><g fill="#ffffff" fill-opacity="1"><g transform="translate(296.113352, 51.24123)"><g><path d="M 5.691406 -19.476562 C 6.828125 -21.226562 10.503906 -16.5 13.351562 -16.5 L 20.703125 -22.367188 L 20.003906 -23.328125 C 17.203125 -21.710938 12.429688 -24.25 7.964844 -24.25 C 7.964844 -24.25 0.0429688 -21.007812 0.0429688 -16.238281 C 0.0429688 -10.8125 15.320312 -8.667969 15.058594 -5.078125 C 12.824219 -5.078125 4.816406 -7.441406 6.476562 -9.058594 L 5.425781 -9.890625 L -1.050781 -3.851562 C 0.21875 -1.402344 4.070312 0 8.140625 0 C 13.480469 0 19.257812 -1.574219 19.257812 -7.527344 C 19.257812 -16.414062 8.230469 -15.144531 5.691406 -19.476562 Z M 5.691406 -19.476562 "/></g></g></g><g fill="#ffffff" fill-opacity="1"><g transform="translate(316.815999, 51.24123)"><g><path d="M 5.691406 -19.476562 C 6.828125 -21.226562 10.503906 -16.5 13.351562 -16.5 L 20.703125 -22.367188 L 20.003906 -23.328125 C 17.203125 -21.710938 12.429688 -24.25 7.964844 -24.25 C 7.964844 -24.25 0.0429688 -21.007812 0.0429688 -16.238281 C 0.0429688 -10.8125 15.320312 -8.667969 15.058594 -5.078125 C 12.824219 -5.078125 4.816406 -7.441406 6.476562 -9.058594 L 5.425781 -9.890625 L -1.050781 -3.851562 C 0.21875 -1.402344 4.070312 0 8.140625 0 C 13.480469 0 19.257812 -1.574219 19.257812 -7.527344 C 19.257812 -16.414062 8.230469 -15.144531 5.691406 -19.476562 Z M 5.691406 -19.476562 "/></g></g></g><g fill="#ffffff" fill-opacity="1"><g transform="translate(337.518646, 51.24123)"><g><path d="M 9.9375 -8.886719 L 19.171875 -16.546875 C 19.171875 -19.433594 14.925781 -24.25 11.597656 -24.25 C 8.140625 -24.25 2.757812 -18.253906 1.621094 -16.371094 C -1.445312 -10.855469 4.550781 -0.132812 9.5 0 L 18.777344 -7.089844 L 17.859375 -8.492188 C 14.445312 -6.257812 11.863281 -6.960938 9.9375 -8.886719 Z M 7.484375 -19.257812 C 9.191406 -20.398438 11.863281 -16.808594 12.605469 -14.136719 L 8.886719 -10.984375 C 7.003906 -13.960938 5.691406 -17.945312 7.484375 -19.257812 Z M 7.484375 -19.257812 "/></g></g></g><g fill="#ffffff" fill-opacity="1"><g transform="translate(357.214599, 51.24123)"><g><path d="M 15.1875 -14.179688 L 20.878906 -18.910156 C 20.878906 -18.910156 17.726562 -24.25 14.398438 -24.25 L 9.9375 -19.960938 C 9.5 -21.796875 8.492188 -22.980469 6.785156 -24.25 L -1.050781 -17.683594 L -0.304688 -16.28125 C 2.277344 -17.945312 3.28125 -17.070312 3.371094 -14.398438 L 3.371094 -7.570312 C 3.328125 -3.765625 4.816406 -1.226562 6.785156 0 L 14.007812 -5.820312 L 13 -7.179688 C 10.941406 -5.734375 10.242188 -7.132812 10.285156 -9.367188 L 10.242188 -16.457031 L 10.242188 -17.113281 L 10.503906 -17.375 C 12.34375 -19.082031 13.960938 -16.238281 15.1875 -14.179688 Z M 15.1875 -14.179688 "/></g></g></g><g clip-path="url(#6c0b3d455e)"><path fill="#ffffff" d="M 55.546875 13.804688 C 57.578125 13.777344 57.800781 13.714844 59.261719 14.0625 C 59.355469 14.09375 59.476562 14.148438 59.457031 14.269531 C 59.300781 14.21875 58.566406 14.152344 58.429688 14.148438 C 57.648438 15.421875 57.695312 15.261719 57.667969 15.472656 C 57.617188 15.898438 57.554688 16.324219 57.515625 16.75 C 57.664062 18.558594 57.667969 18.332031 57.785156 18.589844 C 58.550781 20.191406 58.304688 19.832031 59.605469 21.527344 C 59.683594 21.613281 61.027344 23.023438 61.449219 23.320312 C 62.214844 23.820312 61.957031 23.671875 62.238281 24.003906 C 61.855469 23.808594 61.5 23.558594 61.121094 23.355469 C 59.996094 24.867188 59.386719 25.40625 58.640625 28.128906 C 58.632812 28.183594 58.398438 29.734375 58.425781 29.859375 C 58.800781 31.902344 58.730469 31.570312 58.851562 31.851562 C 59.925781 34.28125 59.847656 34.128906 59.910156 34.203125 C 60.351562 34.726562 60.226562 34.570312 60.34375 34.859375 C 60.378906 34.953125 60.421875 35.042969 60.449219 35.140625 C 60.445312 35.238281 60.410156 35.328125 60.390625 35.417969 C 60.175781 34.820312 59.8125 34.449219 59.757812 34.382812 C 59.441406 34.390625 56.933594 34.472656 56.753906 34.507812 C 53.855469 35.3125 54.054688 35.25 53.96875 35.296875 C 51.796875 36.453125 51.875 36.386719 51.78125 36.480469 C 49.980469 38.226562 50.183594 38.011719 50.082031 38.191406 C 48.667969 40.695312 49.117188 39.710938 47.871094 42.855469 C 48.335938 43.71875 48.261719 43.621094 48.394531 43.964844 C 48.117188 43.59375 47.871094 43.203125 47.609375 42.824219 C 41.140625 40.890625 39.535156 41.253906 38.378906 41.304688 C 38.433594 41.371094 38.488281 41.445312 38.574219 41.488281 C 38.589844 41.484375 38.621094 41.476562 38.636719 41.472656 C 38.652344 41.480469 38.683594 41.5 38.699219 41.507812 C 38.652344 41.800781 38.160156 41.675781 37.933594 41.457031 C 37.773438 41.511719 37.601562 41.539062 37.429688 41.523438 C 37.566406 41.640625 37.703125 41.761719 37.839844 41.878906 C 37.882812 41.816406 37.929688 41.757812 37.980469 41.703125 C 38.019531 41.816406 38.042969 41.9375 38.058594 42.0625 C 38.214844 42.230469 38.753906 42.605469 39.070312 42.878906 C 39.1875 42.984375 39.351562 42.984375 39.488281 43.046875 C 39.707031 43.144531 39.929688 43.246094 40.148438 43.355469 C 40.203125 43.308594 40.257812 43.257812 40.316406 43.214844 C 40.335938 43.300781 40.355469 43.386719 40.375 43.46875 C 41.460938 44.011719 41.347656 43.832031 41.804688 44.300781 C 41.832031 44.21875 41.882812 44.148438 41.933594 44.082031 C 42.113281 44.558594 41.824219 44.476562 42.6875 45.234375 C 42.828125 45.355469 42.71875 45.386719 43.003906 45.550781 C 43.097656 45.441406 43.183594 45.316406 43.308594 45.238281 C 43.320312 45.390625 43.289062 45.546875 43.261719 45.699219 C 43.46875 45.882812 43.683594 46.058594 43.882812 46.253906 C 44.007812 46.144531 44.101562 45.992188 44.261719 45.925781 C 44.277344 46.132812 44.210938 46.332031 44.175781 46.535156 C 44.394531 46.75 44.605469 46.96875 44.820312 47.183594 C 44.871094 47.167969 44.917969 47.152344 44.96875 47.136719 C 44.953125 47.1875 44.9375 47.242188 44.921875 47.296875 C 45.125 47.496094 45.320312 47.703125 45.515625 47.910156 C 45.550781 47.890625 45.585938 47.871094 45.621094 47.851562 C 45.632812 47.992188 45.53125 47.976562 45.824219 48.277344 C 45.878906 48.257812 45.925781 48.230469 45.980469 48.207031 C 45.984375 48.296875 45.984375 48.382812 45.984375 48.472656 C 46.222656 48.761719 46.472656 49.042969 46.703125 49.339844 C 46.78125 49.265625 46.863281 49.199219 46.960938 49.15625 C 46.953125 49.304688 46.890625 49.4375 46.847656 49.578125 C 46.898438 49.660156 46.949219 49.742188 46.996094 49.824219 C 48.015625 50.046875 48.246094 50.207031 48.8125 50.433594 C 48.769531 50.457031 48.726562 50.480469 48.6875 50.503906 C 48.773438 50.582031 48.863281 50.652344 48.953125 50.730469 C 48.902344 51.007812 48.949219 51.007812 48.769531 51.316406 C 48.589844 51.285156 48.410156 51.242188 48.222656 51.230469 C 48.261719 51.3125 48.320312 51.378906 48.382812 51.445312 C 48.375 51.714844 48.320312 51.722656 48.222656 51.867188 C 48.472656 52.289062 48.707031 52.71875 48.972656 53.132812 C 49.015625 53.105469 49.058594 53.078125 49.105469 53.050781 C 49.085938 53.117188 49.066406 53.179688 49.042969 53.242188 C 49.828125 54.5625 49.382812 53.945312 50.992188 57.59375 C 51.027344 57.671875 51.039062 57.753906 51.058594 57.839844 C 51.46875 60.027344 51.441406 59.703125 51.730469 60.222656 C 52.839844 62.132812 53.582031 62.617188 58.402344 67.324219 C 58.515625 67.449219 58.554688 67.460938 58.308594 67.707031 C 58.164062 67.714844 58.179688 67.628906 56.847656 66.492188 C 48.273438 59.402344 51.757812 62.414062 47.570312 55.152344 C 47.546875 55.117188 44.5 50.808594 43.414062 49.953125 C 41.855469 48.675781 41.542969 48.304688 41.410156 48.480469 C 41.328125 48.59375 41.226562 48.699219 41.175781 48.835938 C 41.132812 48.929688 41.113281 49.046875 41.023438 49.113281 C 40.304688 49.707031 40.316406 49.722656 40.1875 49.773438 C 40.070312 49.84375 39.917969 49.871094 39.855469 50.003906 C 39.882812 50.039062 41.101562 52.019531 41.734375 52.699219 C 41.800781 52.660156 41.863281 52.628906 41.929688 52.59375 C 42.074219 52.617188 42.222656 52.605469 42.363281 52.648438 C 42.433594 52.707031 42.492188 52.78125 42.550781 52.851562 C 42.621094 52.859375 43.03125 52.84375 43.199219 53.257812 C 43.070312 53.253906 42.964844 53.160156 42.835938 53.152344 C 42.75 53.164062 42.667969 53.195312 42.582031 53.210938 C 42.53125 53.320312 42.4375 53.382812 42.332031 53.429688 C 42.402344 53.59375 42.546875 53.710938 42.707031 53.777344 C 43.558594 53.878906 43.121094 53.847656 44.167969 54.109375 C 44.214844 53.863281 44.046875 53.617188 44.125 53.375 C 44.195312 53.378906 44.265625 53.382812 44.335938 53.386719 C 44.328125 53.085938 44.160156 53.015625 44.136719 52.867188 C 44.394531 52.976562 44.683594 53.375 44.757812 53.519531 C 44.832031 53.558594 44.894531 53.609375 44.960938 53.660156 C 45.109375 53.21875 45.066406 53.371094 44.984375 53.039062 C 45.238281 53.1875 45.339844 53.539062 45.234375 53.808594 C 45.414062 53.953125 45.34375 54.128906 45.285156 54.777344 C 45.273438 55.105469 45.039062 55.210938 44.84375 55.511719 C 44.761719 55.660156 44.578125 55.6875 44.445312 55.769531 C 44.300781 55.855469 44.132812 55.871094 43.96875 55.871094 C 43.8125 55.773438 43.675781 55.648438 43.539062 55.527344 C 43.40625 55.5625 43.273438 55.613281 43.140625 55.640625 C 42.535156 55.574219 42.566406 55.476562 42.351562 55.359375 C 42.210938 55.257812 42.03125 55.214844 41.921875 55.078125 C 41.890625 55.046875 41.355469 54.519531 40.941406 53.945312 C 40.675781 53.394531 39.308594 52.03125 39.109375 52.003906 C 36.257812 51.785156 35.195312 52.28125 34.5625 51.910156 C 32.71875 50.867188 33.476562 50.355469 33.492188 49.90625 C 33.503906 49.570312 33.710938 48.953125 33.84375 48.789062 C 34.355469 48.089844 34.164062 48.367188 34.523438 48.078125 C 34.992188 47.695312 35.292969 47.660156 35.355469 47.632812 C 35.984375 47.292969 35.367188 47.429688 36.382812 47.257812 C 35.640625 47.066406 33.863281 46.621094 33.3125 46.152344 C 32.011719 44.992188 32.621094 45.703125 31.859375 44.847656 C 30.867188 46.097656 31.109375 45.65625 30.402344 47.109375 C 29.289062 50.90625 30.054688 47.84375 28.691406 52.082031 C 29.0625 53.082031 28.996094 52.871094 29.054688 53.289062 C 28.898438 52.941406 28.703125 52.613281 28.515625 52.285156 C 28.496094 52.242188 28.453125 52.226562 28.414062 52.203125 C 26.714844 51.378906 26.925781 51.417969 25.023438 50.808594 C 24.882812 50.804688 23.660156 50.859375 23.507812 50.878906 C 23.050781 51.09375 22.605469 51.328125 22.148438 51.542969 C 22.039062 51.589844 21.957031 51.675781 21.871094 51.75 C 20.261719 53.164062 20.796875 52.511719 19.574219 54.53125 C 19.632812 54.636719 19.667969 54.753906 19.746094 54.847656 C 19.917969 55.003906 20.078125 55.167969 20.277344 55.292969 C 20.191406 55.28125 20.101562 55.28125 20.019531 55.257812 C 19.984375 55.242188 19.613281 55 19.574219 54.917969 C 19.351562 54.511719 19.484375 54.652344 19.242188 54.433594 C 17.050781 52.527344 17.707031 53.035156 16.980469 52.683594 C 15.789062 52.148438 15.820312 52.152344 15.714844 52.132812 C 14.007812 51.8125 14.09375 51.816406 13.988281 51.820312 C 11.632812 51.957031 13.695312 51.503906 7.90625 52.476562 C 7.945312 52.765625 8.039062 53.046875 8.0625 53.339844 C 7.894531 53.113281 7.902344 53.261719 7.695312 52.515625 C 7.625 52.492188 7.59375 52.421875 7.550781 52.363281 C 6.644531 51.058594 6.183594 50.332031 5.316406 49.617188 C 4.433594 48.929688 4.601562 49.046875 4.351562 48.949219 C 3.15625 48.515625 3.195312 48.519531 3.101562 48.511719 C 1.460938 48.34375 1.960938 48.339844 0.273438 48.667969 C 0.238281 48.878906 0.171875 49.089844 0.15625 49.304688 C 0.0820312 49.289062 0.0351562 49.21875 0.0390625 49.144531 C 0.0117188 48.113281 0.398438 47.605469 0.65625 46.855469 C 0.871094 46.347656 5.359375 42.242188 6.125 41.625 C 6.242188 41.546875 6.414062 41.535156 6.46875 41.386719 C 6.9375 41.195312 6.777344 41.414062 6.914062 41.214844 C 7.371094 41.042969 10.25 40.878906 12.667969 40.542969 C 12.703125 40.535156 14.191406 40.328125 14.652344 40.316406 C 14.132812 39.542969 14.320312 39.246094 14.617188 38.929688 C 14.648438 39.175781 14.847656 39.75 15.035156 39.847656 C 15.207031 39.960938 15.402344 40.03125 15.589844 40.113281 C 15.761719 40.042969 15.917969 39.902344 16.117188 39.917969 C 16.226562 39.902344 16.304688 39.996094 16.394531 40.039062 C 16.476562 40.101562 16.589844 40.128906 16.628906 40.234375 C 16.679688 40.335938 16.664062 40.457031 16.6875 40.566406 C 16.730469 40.554688 16.773438 40.546875 16.820312 40.535156 C 17.980469 41.449219 15.738281 39.914062 21.316406 43.21875 C 22.410156 43.78125 22.007812 43.582031 22.667969 43.761719 C 23.292969 43.90625 24.484375 44.265625 25.480469 44.007812 C 25.378906 43.890625 25.265625 43.742188 25.3125 43.578125 C 25.371094 43.277344 25.210938 43.070312 25.425781 42.816406 C 26.648438 42.753906 26.0625 42.523438 26.601562 42.519531 C 27.082031 42.234375 26.890625 42.007812 27.488281 41.972656 C 27.835938 41.441406 27.535156 41.796875 28.089844 41.1875 C 28.007812 40.746094 28.445312 39.625 28.800781 39.066406 C 29.003906 38.738281 28.886719 38.953125 28.933594 38.402344 C 28.96875 36.640625 27.863281 35.394531 27.859375 33.75 C 27.746094 33.59375 27.613281 33.453125 27.554688 33.265625 C 27.511719 33.277344 27.46875 33.289062 27.429688 33.300781 C 27.269531 33.101562 27.3125 33.042969 27.082031 32.515625 C 27.046875 32.523438 27.011719 32.53125 26.980469 32.542969 C 26.894531 32.355469 26.8125 32.167969 26.722656 31.984375 C 26.578125 31.953125 26.660156 32.105469 26.484375 31.488281 C 26.351562 31.496094 26.441406 31.566406 26.078125 31 C 26.054688 31.003906 26.011719 31.011719 25.988281 31.015625 C 25.890625 30.820312 25.808594 30.613281 25.714844 30.414062 C 25.695312 30.417969 25.65625 30.429688 25.636719 30.433594 C 25.570312 30.269531 25.484375 30.113281 25.410156 29.953125 C 25.394531 29.957031 25.367188 29.972656 25.351562 29.980469 C 25.273438 29.90625 25.207031 29.816406 25.121094 29.75 C 25.109375 29.757812 25.085938 29.777344 25.074219 29.785156 C 24.953125 29.664062 24.859375 29.523438 24.75 29.394531 C 24.730469 29.398438 24.695312 29.410156 24.679688 29.414062 C 24.476562 29.234375 24.320312 28.996094 24.070312 28.882812 C 23.886719 28.796875 23.746094 28.902344 23.554688 28.84375 C 23.476562 28.847656 23.398438 28.851562 23.320312 28.863281 C 23.167969 28.6875 22.914062 28.789062 22.28125 28.664062 C 21.832031 28.621094 21.359375 28.667969 20.945312 28.859375 C 20.289062 29.199219 20.128906 28.910156 19.6875 28.996094 C 19.558594 29.023438 19.433594 29.074219 19.300781 29.089844 C 19.339844 28.980469 19.375 28.867188 19.429688 28.761719 C 19.523438 28.691406 19.625 28.636719 19.71875 28.566406 C 19.722656 28.441406 19.75 28.3125 19.824219 28.207031 C 19.867188 28.222656 19.90625 28.234375 19.949219 28.246094 C 20.015625 28.136719 20.078125 28.015625 20.183594 27.9375 C 20.117188 28.371094 20.15625 28.105469 20.179688 28.464844 C 20.1875 28.261719 20.289062 28.0625 20.460938 27.945312 C 20.445312 28.019531 20.410156 28.09375 20.40625 28.171875 C 20.421875 28.25 20.460938 28.316406 20.5 28.386719 C 20.550781 28.3125 20.585938 28.230469 20.621094 28.148438 C 20.648438 28.210938 20.671875 28.273438 20.695312 28.339844 C 20.710938 28.269531 20.730469 28.203125 20.769531 28.144531 C 20.824219 28.183594 20.875 28.230469 20.914062 28.285156 C 20.933594 28.238281 20.953125 28.195312 20.976562 28.152344 C 21.011719 28.183594 21.042969 28.210938 21.078125 28.238281 C 21.09375 28.128906 21.121094 28.019531 21.191406 27.933594 C 21.207031 28.023438 21.21875 28.113281 21.242188 28.203125 C 21.34375 28.152344 21.347656 28.019531 21.414062 27.941406 C 21.425781 28.007812 21.429688 28.078125 21.441406 28.144531 C 21.476562 28.144531 21.511719 28.140625 21.546875 28.140625 C 21.558594 28.085938 21.570312 28.03125 21.582031 27.976562 C 21.4375 27.847656 20.976562 27.609375 20.910156 27.648438 C 20.796875 27.695312 20.691406 27.769531 20.570312 27.796875 C 20.402344 27.8125 20.230469 27.792969 20.070312 27.847656 C 19.949219 27.890625 19.820312 27.855469 19.703125 27.832031 C 19.640625 27.75 19.5625 27.671875 19.542969 27.566406 C 19.632812 27.617188 19.691406 27.714844 19.789062 27.761719 C 20.015625 27.734375 20.285156 27.4375 20.804688 27.316406 C 21.203125 27.257812 21.933594 27.738281 22.089844 27.828125 C 22.417969 27.59375 22.199219 27.773438 22.644531 27.210938 C 23.152344 27.109375 22.964844 27.085938 23.160156 27.152344 C 23.269531 27.128906 23.367188 27.054688 23.621094 27.25 C 23.648438 27.109375 23.664062 26.96875 23.6875 26.828125 C 23.664062 26.785156 23.644531 26.746094 23.625 26.707031 C 23.582031 26.714844 23.542969 26.71875 23.503906 26.726562 C 23.496094 26.714844 23.484375 26.691406 23.476562 26.679688 C 23.410156 26.710938 23.339844 26.730469 23.269531 26.746094 C 23.261719 26.6875 23.257812 26.625 23.25 26.566406 C 23.175781 26.519531 23.226562 26.441406 23.261719 26.382812 C 23.273438 26.378906 23.296875 26.375 23.308594 26.371094 C 23.273438 26.375 23.234375 26.378906 23.195312 26.382812 C 23.191406 26.371094 23.179688 26.351562 23.171875 26.339844 C 23.128906 26.371094 23.039062 26.417969 23.015625 26.335938 C 22.960938 26.363281 22.902344 26.382812 22.84375 26.398438 C 22.824219 26.335938 22.832031 26.273438 22.847656 26.214844 C 22.824219 26.199219 22.800781 26.1875 22.777344 26.175781 C 22.738281 26.226562 22.699219 26.273438 22.65625 26.324219 C 22.609375 26.191406 22.707031 26.078125 22.757812 25.96875 C 22.738281 25.96875 22.695312 25.976562 22.675781 25.976562 C 22.671875 25.960938 22.664062 25.933594 22.660156 25.917969 C 22.597656 25.945312 22.535156 25.976562 22.476562 26.003906 C 22.484375 25.933594 22.496094 25.863281 22.507812 25.792969 C 22.449219 25.746094 22.390625 25.707031 22.324219 25.671875 C 22.269531 25.714844 22.21875 25.761719 22.164062 25.808594 C 22.171875 25.730469 22.179688 25.652344 22.175781 25.574219 C 22.152344 25.515625 22.089844 25.480469 22.046875 25.433594 C 21.992188 25.511719 21.949219 25.597656 21.890625 25.675781 C 21.777344 25.660156 21.839844 25.378906 21.878906 25.265625 C 21.855469 25.238281 21.828125 25.214844 21.804688 25.191406 C 21.757812 25.191406 21.707031 25.199219 21.683594 25.144531 C 21.628906 25.183594 21.570312 25.210938 21.503906 25.234375 C 21.515625 25.152344 21.527344 25.070312 21.550781 24.988281 C 21.523438 24.960938 21.507812 24.925781 21.507812 24.886719 C 21.472656 24.929688 21.398438 24.949219 21.375 24.882812 C 21.316406 24.992188 21.285156 25.113281 21.207031 25.210938 C 21.15625 25.035156 21.160156 24.851562 21.191406 24.675781 C 21.097656 24.78125 21.019531 24.898438 20.964844 25.027344 C 20.933594 25.097656 20.910156 25.179688 20.84375 25.226562 C 20.753906 24.75 20.878906 24.675781 20.925781 24.410156 C 20.867188 24.378906 20.8125 24.34375 20.761719 24.300781 C 20.691406 24.332031 20.625 24.363281 20.554688 24.390625 C 20.515625 24.230469 20.476562 24.1875 20.65625 24.082031 C 20.742188 23.945312 20.867188 23.851562 20.980469 23.742188 C 21.0625 23.730469 21.144531 23.707031 21.230469 23.703125 C 21.328125 23.714844 21.40625 23.78125 21.503906 23.785156 C 21.863281 23.820312 21.875 23.96875 22.519531 23.933594 C 22.84375 23.917969 22.734375 24.230469 22.816406 24.410156 C 22.816406 24.410156 23.066406 24.757812 23.925781 25.617188 C 24.085938 25.621094 23.949219 25.5625 24.351562 25.789062 C 24.421875 25.769531 24.5 25.765625 24.558594 25.710938 C 24.652344 25.628906 24.769531 25.53125 24.90625 25.570312 C 24.878906 25.632812 24.84375 25.695312 24.804688 25.75 C 24.84375 25.738281 24.886719 25.726562 24.925781 25.714844 C 24.972656 25.726562 25.03125 25.765625 25.078125 25.726562 C 25.210938 25.625 25.371094 25.507812 25.550781 25.542969 C 25.496094 25.628906 25.421875 25.703125 25.351562 25.773438 C 25.503906 25.796875 25.65625 25.832031 25.789062 25.910156 C 25.890625 25.886719 26 25.867188 26.085938 25.9375 C 26.070312 25.957031 26.039062 25.992188 26.023438 26.011719 C 26.058594 26.128906 26.09375 26.246094 26.113281 26.367188 C 26.164062 26.355469 26.242188 26.347656 26.261719 26.414062 C 26.246094 26.441406 26.230469 26.46875 26.214844 26.496094 C 26.664062 26.71875 26.480469 26.648438 26.777344 26.847656 C 26.78125 26.863281 26.785156 26.894531 26.785156 26.910156 C 26.839844 26.9375 26.902344 26.960938 26.933594 27.019531 C 27.09375 27.207031 26.996094 26.976562 27.519531 27.191406 C 27.660156 27.277344 27.605469 27.199219 27.886719 27.65625 C 28.066406 27.636719 28.25 27.59375 28.359375 27.957031 C 28.246094 27.914062 28.148438 27.800781 28.015625 27.816406 C 27.914062 27.820312 27.8125 27.875 27.714844 27.832031 C 27.546875 27.785156 27.5625 27.554688 27.410156 27.484375 C 27.316406 27.441406 27.21875 27.492188 27.128906 27.519531 C 27.046875 27.492188 26.949219 27.503906 26.878906 27.449219 C 26.882812 27.507812 26.890625 27.570312 26.894531 27.632812 C 26.976562 27.648438 27.050781 27.683594 27.109375 27.742188 C 27.128906 27.804688 27.152344 27.871094 27.160156 27.9375 C 27.097656 27.90625 27.039062 27.863281 26.980469 27.820312 C 26.8125 27.953125 26.636719 28.078125 26.449219 28.1875 C 26.464844 28.210938 26.480469 28.230469 26.5 28.253906 C 26.667969 28.171875 26.855469 28.207031 27.035156 28.210938 C 26.9375 28.332031 26.847656 28.472656 26.710938 28.554688 C 26.765625 28.621094 26.816406 28.6875 26.871094 28.753906 C 27.089844 28.683594 27.3125 28.609375 27.535156 28.539062 C 27.246094 28.96875 27.355469 28.839844 27.109375 29.058594 C 27.125 29.078125 27.140625 29.101562 27.15625 29.121094 C 27.328125 29.035156 27.511719 28.972656 27.695312 28.929688 C 27.597656 29.078125 27.464844 29.207031 27.316406 29.3125 C 27.363281 29.367188 27.410156 29.425781 27.457031 29.480469 C 27.632812 29.375 27.828125 29.304688 28.027344 29.257812 C 27.933594 29.429688 27.808594 29.585938 27.65625 29.707031 C 27.695312 29.769531 27.730469 29.707031 28.035156 29.652344 C 27.972656 29.738281 27.902344 29.816406 27.820312 29.878906 C 27.910156 29.96875 27.996094 30.070312 28.089844 30.160156 C 28.5 29.941406 28.945312 29.820312 29.070312 29.796875 C 28.972656 29.988281 28.882812 30.003906 28.421875 30.503906 C 28.476562 30.558594 28.53125 30.617188 28.585938 30.675781 C 29 30.398438 29.300781 30.273438 29.40625 30.246094 C 29.261719 30.515625 29.054688 30.746094 28.871094 30.992188 C 28.964844 31.097656 29.054688 31.203125 29.148438 31.304688 C 29.417969 31.152344 29.699219 31.019531 29.976562 30.878906 C 29.839844 31.054688 29.742188 31.257812 29.609375 31.441406 C 29.542969 31.53125 29.550781 31.648438 29.503906 31.746094 C 29.746094 32.003906 29.582031 31.773438 29.945312 32.242188 C 29.980469 32.199219 30.019531 32.15625 30.058594 32.117188 C 30.082031 32.214844 30.089844 32.320312 30.113281 32.417969 C 30.160156 32.460938 30.230469 32.484375 30.257812 32.546875 C 30.640625 33.332031 32.066406 35.777344 33.101562 36.433594 C 33.230469 36.460938 33.359375 36.425781 33.484375 36.390625 C 33.910156 36.476562 34.621094 36.625 34.984375 36.882812 C 36.949219 36.105469 35.972656 36.351562 37.738281 36.09375 C 38.058594 36.085938 38.378906 36.128906 38.699219 36.132812 C 40.222656 36.070312 39.714844 36.148438 40.90625 35.734375 C 41.003906 35.703125 41.429688 35.308594 41.523438 35.148438 C 42.160156 33.886719 42.277344 32.566406 42.257812 32.445312 C 42.050781 31.582031 41.855469 30.71875 41.652344 29.855469 C 40.757812 27.210938 40.738281 27.542969 40.25 26.902344 C 40.269531 26.863281 40.292969 26.820312 40.3125 26.78125 C 40.175781 26.742188 40.039062 26.695312 39.921875 26.605469 C 39.726562 26.054688 39.738281 26.039062 39.792969 25.882812 C 39.871094 25.796875 39.972656 25.738281 40.0625 25.660156 C 39.867188 25.140625 39.953125 25.121094 38.546875 24.882812 C 38.359375 24.871094 38.175781 24.867188 37.992188 24.867188 C 38.023438 24.855469 38.78125 24.5 39.257812 24.511719 C 40.007812 24.511719 40.046875 24.453125 40.699219 24.734375 C 40.777344 24.761719 41.039062 25.074219 41.054688 25.1875 C 41.992188 23.039062 42.953125 22.984375 44.960938 18.746094 C 45.695312 17.21875 45.53125 17.464844 45.753906 17.386719 C 45.761719 17.273438 45.839844 17.179688 45.925781 17.113281 C 46.769531 16.570312 54.765625 13.757812 55.546875 13.804688 M 26.273438 27.558594 C 26.269531 27.648438 26.253906 27.734375 26.234375 27.820312 C 26.371094 27.769531 26.507812 27.691406 26.65625 27.734375 C 26.640625 27.320312 26.316406 27.546875 26.273438 27.558594 M 22.628906 28.015625 C 22.660156 28.023438 22.691406 28.027344 22.722656 28.03125 C 22.75 27.976562 22.78125 27.925781 22.820312 27.878906 C 22.867188 27.9375 22.902344 28.003906 22.929688 28.070312 C 22.941406 28.058594 22.960938 28.035156 22.972656 28.019531 C 22.984375 28.035156 23.007812 28.0625 23.019531 28.074219 C 23.050781 28.074219 23.085938 28.078125 23.121094 28.078125 C 23.136719 28.019531 23.160156 27.964844 23.191406 27.910156 C 23.230469 27.953125 23.269531 28 23.308594 28.046875 C 23.3125 28.035156 23.328125 28.007812 23.335938 27.992188 C 23.167969 27.640625 23.117188 27.703125 23.019531 27.679688 C 22.867188 27.765625 22.738281 27.878906 22.628906 28.015625 M 21.617188 28.003906 C 21.632812 28.039062 21.648438 28.078125 21.664062 28.117188 C 21.691406 28.109375 21.714844 28.101562 21.738281 28.09375 C 21.699219 28.0625 21.660156 28.03125 21.617188 28.003906 M 25.980469 43.351562 C 25.992188 43.472656 25.96875 43.613281 26.03125 43.722656 C 26.035156 43.597656 26.035156 43.464844 25.980469 43.351562 M 38.695312 50.140625 C 38.589844 50.171875 38.496094 50.230469 38.394531 50.269531 C 38.617188 50.292969 38.835938 50.25 39.058594 50.230469 C 39.148438 50.226562 39.214844 50.15625 39.285156 50.109375 C 39.089844 50.148438 38.894531 50.128906 38.695312 50.140625 Z M 38.695312 50.140625 " fill-opacity="1" fill-rule="nonzero"/></g><g clip-path="url(#18f5a6642c)"><g clip-path="url(#b9d7625f03)"><g clip-path="url(#4e25081416)"><path fill="#ffffff" d="M 29.28125 39.902344 C 28.085938 40.585938 25.375 43.222656 25.839844 44.039062 C 26.308594 44.851562 27.871094 46.65625 28.738281 47.238281 C 29.601562 47.824219 31.917969 45.414062 32.082031 44.78125 C 32.246094 44.144531 30.074219 39.445312 29.28125 39.902344 Z M 29.28125 39.902344 " fill-opacity="1" fill-rule="nonzero"/></g></g></g><g clip-path="url(#6d6e334777)"><g clip-path="url(#b79ac463df)"><g clip-path="url(#1c7f0ed658)"><path fill="#ffffff" d="M 25.9375 43.289062 C 25.769531 43.585938 25.738281 43.859375 25.839844 44.039062 C 26.308594 44.851562 27.871094 46.65625 28.738281 47.238281 C 28.980469 47.40625 29.332031 47.320312 29.730469 47.128906 C 28.667969 46.199219 27.335938 44.800781 25.9375 43.289062 Z M 25.9375 43.289062 " fill-opacity="1" fill-rule="nonzero"/></g></g></g><g clip-path="url(#11558f0b1a)"><g clip-path="url(#dbb8aa4471)"><g clip-path="url(#62147427db)"><path fill="#ffffff" d="M 34.84375 36.707031 C 36.035156 36.023438 39.683594 35.011719 40.148438 35.824219 C 40.617188 36.636719 41.386719 38.898438 41.457031 39.941406 C 41.523438 40.980469 38.277344 41.765625 37.644531 41.585938 C 37.015625 41.40625 34.050781 37.164062 34.84375 36.707031 Z M 34.84375 36.707031 " fill-opacity="1" fill-rule="nonzero"/></g></g></g><g clip-path="url(#50c5c33159)"><g clip-path="url(#c91a7b58fc)"><g clip-path="url(#ec54944eb0)"><path fill="#ffffff" d="M 39.453125 35.53125 C 39.796875 35.535156 40.046875 35.648438 40.148438 35.824219 C 40.617188 36.636719 41.386719 38.898438 41.457031 39.941406 C 41.476562 40.230469 41.222656 40.492188 40.859375 40.742188 C 40.589844 39.355469 40.054688 37.5 39.453125 35.53125 Z M 39.453125 35.53125 " fill-opacity="1" fill-rule="nonzero"/></g></g></g><g clip-path="url(#295f034e73)"><g clip-path="url(#cb4d570c17)"><g clip-path="url(#b5cfd7e79e)"><path fill="#ffffff" d="M 34.84375 36.707031 L 34.421875 36.953125 C 34.648438 37.734375 33.964844 38.835938 32.761719 39.523438 C 31.5625 40.214844 30.265625 40.253906 29.703125 39.65625 L 29.28125 39.902344 C 28.402344 40.40625 27.710938 41.769531 28.226562 42.667969 C 28.226562 42.667969 32.894531 50.800781 33.429688 52.652344 C 33.964844 54.507812 35.074219 53.871094 35.953125 53.367188 L 43.105469 49.261719 C 43.984375 48.757812 45.09375 48.121094 43.761719 46.722656 C 42.433594 45.324219 37.765625 37.191406 37.765625 37.191406 C 37.25 36.296875 35.722656 36.203125 34.84375 36.707031 Z M 34.84375 36.707031 " fill-opacity="1" fill-rule="nonzero"/></g></g></g><g clip-path="url(#691a701760)"><g clip-path="url(#1f4a2c299f)"><g clip-path="url(#e7e40f4390)"><path fill="#ffffff" d="M 33.230469 40.335938 C 34.765625 39.457031 35.488281 37.832031 34.84375 36.707031 L 34.421875 36.953125 C 34.648438 37.734375 33.964844 38.835938 32.761719 39.523438 C 31.5625 40.214844 30.265625 40.253906 29.703125 39.65625 L 29.28125 39.902344 C 29.925781 41.023438 31.691406 41.21875 33.230469 40.335938 Z M 33.230469 40.335938 " fill-opacity="1" fill-rule="nonzero"/></g></g></g></svg>