<svg xmlns="http://www.w3.org/2000/svg" xmlns:xlink="http://www.w3.org/1999/xlink" width="75" zoomAndPan="magnify" viewBox="0 0 56.25 56.249997" height="75" preserveAspectRatio="xMidYMid meet" version="1.0"><defs><clipPath id="0a3e20fff4"><path d="M 0 0 L 55.511719 0 L 55.511719 43 L 0 43 Z M 0 0 " clip-rule="nonzero"/></clipPath><clipPath id="97c7e1f86a"><path d="M 12 44 L 25 44 L 25 55.511719 L 12 55.511719 Z M 12 44 " clip-rule="nonzero"/></clipPath><clipPath id="b4c8224d95"><path d="M 35 44 L 47 44 L 47 55.511719 L 35 55.511719 Z M 35 44 " clip-rule="nonzero"/></clipPath></defs><g clip-path="url(#0a3e20fff4)"><path fill="#ffffff" d="M 14.800781 35.15625 L 43.207031 35.15625 C 43.660156 35.15625 44.105469 35.121094 44.550781 35.046875 C 44.992188 34.972656 45.429688 34.863281 45.851562 34.714844 C 46.277344 34.566406 46.6875 34.386719 47.082031 34.167969 C 47.476562 33.949219 47.847656 33.703125 48.203125 33.421875 C 48.554688 33.140625 48.878906 32.835938 49.179688 32.5 C 49.480469 32.164062 49.75 31.804688 49.988281 31.425781 C 50.230469 31.042969 50.433594 30.644531 50.605469 30.230469 C 50.777344 29.8125 50.914062 29.386719 51.011719 28.945312 L 55.464844 9.667969 C 55.527344 9.394531 55.527344 9.117188 55.464844 8.84375 C 55.402344 8.566406 55.285156 8.320312 55.109375 8.097656 C 54.933594 7.878906 54.71875 7.707031 54.464844 7.585938 C 54.210938 7.460938 53.941406 7.402344 53.660156 7.402344 L 10.609375 7.402344 L 9.203125 1.425781 C 9.105469 1.007812 8.886719 0.667969 8.550781 0.398438 C 8.214844 0.132812 7.832031 0 7.402344 0 L 1.851562 0 C 1.605469 0 1.367188 0.046875 1.140625 0.140625 C 0.914062 0.234375 0.714844 0.367188 0.542969 0.542969 C 0.367188 0.714844 0.234375 0.914062 0.140625 1.140625 C 0.046875 1.367188 0 1.605469 0 1.851562 C 0 2.09375 0.046875 2.332031 0.140625 2.558594 C 0.234375 2.785156 0.367188 2.984375 0.542969 3.160156 C 0.714844 3.332031 0.914062 3.464844 1.140625 3.558594 C 1.367188 3.652344 1.605469 3.699219 1.851562 3.699219 L 5.9375 3.699219 L 12.582031 31.929688 C 12 32.1875 11.480469 32.53125 11.015625 32.96875 C 10.554688 33.40625 10.179688 33.90625 9.886719 34.472656 C 9.597656 35.035156 9.410156 35.632812 9.324219 36.265625 C 9.238281 36.894531 9.261719 37.519531 9.390625 38.140625 C 9.523438 38.765625 9.753906 39.347656 10.082031 39.890625 C 10.414062 40.433594 10.824219 40.90625 11.316406 41.308594 C 11.808594 41.707031 12.355469 42.015625 12.953125 42.230469 C 13.550781 42.445312 14.167969 42.554688 14.800781 42.558594 L 49.957031 42.558594 C 50.203125 42.558594 50.441406 42.511719 50.667969 42.417969 C 50.894531 42.324219 51.09375 42.1875 51.265625 42.015625 C 51.441406 41.84375 51.574219 41.640625 51.667969 41.414062 C 51.761719 41.1875 51.808594 40.953125 51.808594 40.707031 C 51.808594 40.460938 51.761719 40.226562 51.667969 40 C 51.574219 39.773438 51.441406 39.574219 51.265625 39.398438 C 51.09375 39.226562 50.894531 39.089844 50.667969 38.996094 C 50.441406 38.902344 50.203125 38.855469 49.957031 38.855469 L 14.800781 38.855469 C 14.558594 38.855469 14.320312 38.808594 14.09375 38.714844 C 13.867188 38.621094 13.667969 38.488281 13.496094 38.316406 C 13.320312 38.140625 13.1875 37.941406 13.09375 37.714844 C 13 37.488281 12.953125 37.25 12.953125 37.007812 C 12.953125 36.761719 13 36.523438 13.09375 36.296875 C 13.1875 36.070312 13.320312 35.871094 13.496094 35.699219 C 13.667969 35.523438 13.867188 35.390625 14.09375 35.296875 C 14.320312 35.203125 14.558594 35.15625 14.800781 35.15625 Z M 51.332031 11.101562 L 47.40625 28.113281 C 47.300781 28.589844 47.117188 29.035156 46.855469 29.449219 C 46.597656 29.859375 46.277344 30.21875 45.894531 30.523438 C 45.515625 30.828125 45.09375 31.058594 44.632812 31.21875 C 44.171875 31.378906 43.695312 31.457031 43.207031 31.457031 L 16.269531 31.457031 L 11.472656 11.101562 Z M 51.332031 11.101562 " fill-opacity="1" fill-rule="nonzero"/></g><g clip-path="url(#97c7e1f86a)"><path fill="#ffffff" d="M 18.503906 44.40625 C 18.140625 44.40625 17.777344 44.445312 17.421875 44.515625 C 17.0625 44.585938 16.714844 44.691406 16.378906 44.832031 C 16.042969 44.96875 15.722656 45.140625 15.417969 45.34375 C 15.117188 45.546875 14.835938 45.777344 14.578125 46.035156 C 14.320312 46.292969 14.089844 46.570312 13.886719 46.875 C 13.683594 47.179688 13.515625 47.496094 13.375 47.835938 C 13.234375 48.171875 13.128906 48.519531 13.058594 48.875 C 12.988281 49.234375 12.953125 49.59375 12.953125 49.957031 C 12.953125 50.324219 12.988281 50.683594 13.058594 51.042969 C 13.128906 51.398438 13.234375 51.746094 13.375 52.082031 C 13.515625 52.417969 13.683594 52.738281 13.886719 53.042969 C 14.089844 53.347656 14.320312 53.625 14.578125 53.882812 C 14.835938 54.140625 15.117188 54.371094 15.417969 54.574219 C 15.722656 54.777344 16.042969 54.949219 16.378906 55.085938 C 16.714844 55.226562 17.0625 55.332031 17.421875 55.402344 C 17.777344 55.472656 18.140625 55.511719 18.503906 55.511719 C 18.867188 55.511719 19.230469 55.472656 19.585938 55.402344 C 19.945312 55.332031 20.289062 55.226562 20.628906 55.085938 C 20.964844 54.949219 21.285156 54.777344 21.585938 54.574219 C 21.890625 54.371094 22.171875 54.140625 22.429688 53.882812 C 22.6875 53.625 22.917969 53.347656 23.117188 53.042969 C 23.320312 52.738281 23.492188 52.417969 23.632812 52.082031 C 23.769531 51.746094 23.875 51.398438 23.949219 51.042969 C 24.019531 50.683594 24.054688 50.324219 24.054688 49.957031 C 24.054688 49.59375 24.019531 49.234375 23.949219 48.875 C 23.875 48.519531 23.769531 48.171875 23.632812 47.835938 C 23.492188 47.496094 23.320312 47.179688 23.117188 46.875 C 22.917969 46.570312 22.6875 46.292969 22.429688 46.035156 C 22.171875 45.777344 21.890625 45.546875 21.585938 45.34375 C 21.285156 45.140625 20.964844 44.96875 20.628906 44.832031 C 20.289062 44.691406 19.945312 44.585938 19.585938 44.515625 C 19.230469 44.445312 18.867188 44.40625 18.503906 44.40625 Z M 18.503906 51.808594 C 18.257812 51.808594 18.023438 51.761719 17.796875 51.667969 C 17.570312 51.574219 17.367188 51.441406 17.195312 51.265625 C 17.019531 51.09375 16.886719 50.894531 16.792969 50.667969 C 16.699219 50.441406 16.652344 50.203125 16.652344 49.957031 C 16.652344 49.714844 16.699219 49.476562 16.792969 49.25 C 16.886719 49.023438 17.019531 48.824219 17.195312 48.652344 C 17.367188 48.476562 17.570312 48.34375 17.796875 48.25 C 18.023438 48.15625 18.257812 48.109375 18.503906 48.109375 C 18.75 48.109375 18.984375 48.15625 19.210938 48.25 C 19.4375 48.34375 19.636719 48.476562 19.8125 48.652344 C 19.984375 48.824219 20.117188 49.023438 20.210938 49.25 C 20.308594 49.476562 20.355469 49.714844 20.355469 49.957031 C 20.355469 50.203125 20.308594 50.441406 20.210938 50.667969 C 20.117188 50.894531 19.984375 51.09375 19.8125 51.265625 C 19.636719 51.441406 19.4375 51.574219 19.210938 51.667969 C 18.984375 51.761719 18.75 51.808594 18.503906 51.808594 Z M 18.503906 51.808594 " fill-opacity="1" fill-rule="nonzero"/></g><g clip-path="url(#b4c8224d95)"><path fill="#ffffff" d="M 40.707031 44.40625 C 40.34375 44.40625 39.980469 44.445312 39.625 44.515625 C 39.265625 44.585938 38.917969 44.691406 38.582031 44.832031 C 38.246094 44.96875 37.925781 45.140625 37.625 45.34375 C 37.320312 45.546875 37.039062 45.777344 36.78125 46.035156 C 36.523438 46.292969 36.292969 46.570312 36.089844 46.875 C 35.890625 47.179688 35.71875 47.496094 35.578125 47.835938 C 35.4375 48.171875 35.335938 48.519531 35.261719 48.875 C 35.191406 49.234375 35.15625 49.59375 35.15625 49.957031 C 35.15625 50.324219 35.191406 50.683594 35.261719 51.042969 C 35.335938 51.398438 35.4375 51.746094 35.578125 52.082031 C 35.71875 52.417969 35.890625 52.738281 36.089844 53.042969 C 36.292969 53.347656 36.523438 53.625 36.78125 53.882812 C 37.039062 54.140625 37.320312 54.371094 37.625 54.574219 C 37.925781 54.777344 38.246094 54.949219 38.582031 55.085938 C 38.917969 55.226562 39.265625 55.332031 39.625 55.402344 C 39.980469 55.472656 40.34375 55.511719 40.707031 55.511719 C 41.070312 55.511719 41.433594 55.472656 41.789062 55.402344 C 42.148438 55.332031 42.496094 55.226562 42.832031 55.085938 C 43.167969 54.949219 43.488281 54.777344 43.792969 54.574219 C 44.09375 54.371094 44.375 54.140625 44.632812 53.882812 C 44.890625 53.625 45.121094 53.347656 45.324219 53.042969 C 45.523438 52.738281 45.695312 52.417969 45.835938 52.082031 C 45.976562 51.746094 46.082031 51.398438 46.152344 51.042969 C 46.222656 50.683594 46.257812 50.324219 46.257812 49.957031 C 46.257812 49.59375 46.222656 49.234375 46.152344 48.875 C 46.082031 48.519531 45.976562 48.171875 45.835938 47.835938 C 45.695312 47.496094 45.523438 47.179688 45.324219 46.875 C 45.121094 46.570312 44.890625 46.292969 44.632812 46.035156 C 44.375 45.777344 44.09375 45.546875 43.792969 45.34375 C 43.488281 45.140625 43.167969 44.96875 42.832031 44.832031 C 42.496094 44.691406 42.148438 44.585938 41.789062 44.515625 C 41.433594 44.445312 41.070312 44.40625 40.707031 44.40625 Z M 40.707031 51.808594 C 40.460938 51.808594 40.226562 51.761719 40 51.667969 C 39.773438 51.574219 39.574219 51.441406 39.398438 51.265625 C 39.226562 51.09375 39.089844 50.894531 38.996094 50.667969 C 38.902344 50.441406 38.855469 50.203125 38.855469 49.957031 C 38.855469 49.714844 38.902344 49.476562 38.996094 49.25 C 39.089844 49.023438 39.226562 48.824219 39.398438 48.652344 C 39.574219 48.476562 39.773438 48.34375 40 48.25 C 40.226562 48.15625 40.460938 48.109375 40.707031 48.109375 C 40.953125 48.109375 41.1875 48.15625 41.414062 48.25 C 41.640625 48.34375 41.84375 48.476562 42.015625 48.652344 C 42.1875 48.824219 42.324219 49.023438 42.417969 49.25 C 42.511719 49.476562 42.558594 49.714844 42.558594 49.957031 C 42.558594 50.203125 42.511719 50.441406 42.417969 50.667969 C 42.324219 50.894531 42.1875 51.09375 42.015625 51.265625 C 41.84375 51.441406 41.640625 51.574219 41.414062 51.667969 C 41.1875 51.761719 40.953125 51.808594 40.707031 51.808594 Z M 40.707031 51.808594 " fill-opacity="1" fill-rule="nonzero"/></g></svg>